<svg xmlns:xlink="http://www.w3.org/1999/xlink" xmlns="http://www.w3.org/2000/svg" width="51" height="50" viewBox="0 0 51 50" fill="none">
<rect x="0.576172" width="50" height="50" rx="25" fill="#3386FF" fill-opacity="0.48"/>
<rect x="13.0762" y="12.5" width="25" height="25" rx="12.5" fill="#3386FF"/>
<path d="M21.5112 21.7098L20.3499 22.8711C19.9632 23.2581 19.5759 22.8711 19.9632 22.4838L23.0599 19.3871C23.4465 19.0001 23.8339 19.3871 23.4465 19.7741L22.2855 20.9354C22.2855 20.9354 23.0595 20.9354 23.8339 21.7098L24.6082 22.4838L27.6205 19.4714C27.7455 19.3465 27.9151 19.2762 28.0919 19.2762C28.2686 19.2762 28.4382 19.3465 28.5632 19.4714L28.9469 19.8548C29.0381 19.946 29.101 20.0617 29.1278 20.1879C29.1546 20.3141 29.1442 20.4454 29.0979 20.5658L27.3179 25.1938L29.6405 28.2904L30.9839 27.6188C31.0514 27.5848 31.1289 27.576 31.2024 27.594C31.2759 27.6121 31.3405 27.6557 31.3847 27.7171C31.429 27.7785 31.4498 27.8536 31.4436 27.929C31.4374 28.0044 31.4045 28.0751 31.3509 28.1284L28.7042 30.7751C28.6509 30.8292 28.5801 30.8624 28.5044 30.8688C28.4288 30.8752 28.3534 30.8544 28.2918 30.81C28.2302 30.7656 28.1865 30.7007 28.1686 30.6269C28.1507 30.5532 28.1598 30.4754 28.1942 30.4078L28.8662 29.0644L25.7695 26.7421L21.1415 28.5221C21.0212 28.5684 20.89 28.5787 20.7638 28.5519C20.6377 28.5251 20.522 28.4623 20.4309 28.3711L20.0475 27.9878C19.9856 27.9259 19.9365 27.8524 19.9029 27.7715C19.8694 27.6906 19.8522 27.6038 19.8522 27.5163C19.8522 27.4287 19.8694 27.342 19.9029 27.2611C19.9365 27.1802 19.9856 27.1067 20.0475 27.0448L23.0595 24.0324L22.2855 23.2581C21.5112 22.4838 21.5112 21.7098 21.5112 21.7098V21.7098Z" fill="white"/>
</svg>