<svg xmlns:xlink="http://www.w3.org/1999/xlink" xmlns="http://www.w3.org/2000/svg" width="33" height="33" viewBox="0 0 33 33" fill="none">
<path d="M16.5564 2.77409C9.2044 2.77409 3.22307 8.75543 3.22307 16.1074C3.22307 23.4594 9.2044 29.4408 16.5564 29.4408C23.9084 29.4408 29.8897 23.4594 29.8897 16.1074C29.8897 8.75543 23.9084 2.77409 16.5564 2.77409ZM16.5564 26.7741C10.6751 26.7741 5.88973 21.9888 5.88973 16.1074C5.88973 10.2261 10.6751 5.44076 16.5564 5.44076C22.4377 5.44076 27.2231 10.2261 27.2231 16.1074C27.2231 21.9888 22.4377 26.7741 16.5564 26.7741Z" fill="black"/>
<path d="M17.8897 9.44075H15.2231V17.4408H23.2231V14.7741H17.8897V9.44075Z" fill="#3386FF"/>
</svg>