<svg xmlns:xlink="http://www.w3.org/1999/xlink" xmlns="http://www.w3.org/2000/svg" width="33" height="32" viewBox="0 0 33 32" fill="none">
<g opacity="0.9">
<path d="M12.576 13.3332C12.2224 13.3332 11.8833 13.4737 11.6332 13.7237C11.3832 13.9738 11.2427 14.3129 11.2427 14.6665V19.9998H13.9094V15.9998H17.9094V19.3332L22.576 14.6665L17.9094 9.99984V13.3332H12.576ZM17.5187 1.85718L30.7187 15.0572C30.9686 15.3072 31.1091 15.6463 31.1091 15.9998C31.1091 16.3534 30.9686 16.6925 30.7187 16.9425L17.5187 30.1425C17.2686 30.3925 16.9296 30.5329 16.576 30.5329C16.2225 30.5329 15.8834 30.3925 15.6334 30.1425L2.43335 16.9425C2.18339 16.6925 2.04297 16.3534 2.04297 15.9998C2.04297 15.6463 2.18339 15.3072 2.43335 15.0572L15.6334 1.85718C15.8834 1.60722 16.2225 1.4668 16.576 1.4668C16.9296 1.4668 17.2686 1.60722 17.5187 1.85718V1.85718Z" fill="#3386FF"/>
</g>
</svg>