<svg xmlns:xlink="http://www.w3.org/1999/xlink" width="20" height="21" viewBox="0 0 20 21" fill="none" xmlns="http://www.w3.org/2000/svg">
<path d="M17.5003 20.75H17.3728C2.63527 19.9025 0.542771 7.4675 0.250271 3.6725C0.204555 3.07756 0.397033 2.48883 0.785367 2.03579C1.1737 1.58276 1.72609 1.30253 2.32102 1.25675C2.38052 1.25225 2.44027 1.25 2.50027 1.25L6.45277 1.25C6.75319 1.24971 7.04677 1.33963 7.29549 1.50812C7.54422 1.67661 7.73662 1.9159 7.84777 2.195L8.98777 5C9.09753 5.27266 9.12477 5.57156 9.0661 5.85957C9.00744 6.14758 8.86545 6.412 8.65777 6.62L7.06027 8.2325C7.30879 9.651 7.98756 10.9587 9.00452 11.9784C10.0215 12.998 11.3274 13.6802 12.7453 13.9325L14.3728 12.32C14.5839 12.1146 14.8508 11.9759 15.1402 11.9213C15.4297 11.8666 15.7288 11.8983 16.0003 12.0125L18.8278 13.145C19.1027 13.2597 19.3372 13.4536 19.5015 13.702C19.6658 13.9504 19.7524 14.2422 19.7503 14.54V18.5C19.7503 19.0967 19.5132 19.669 19.0913 20.091C18.6693 20.5129 18.097 20.75 17.5003 20.75ZM2.50027 2.75C2.40178 2.7497 2.30419 2.76881 2.21309 2.80623C2.12198 2.84365 2.03913 2.89864 1.96928 2.96808C1.89943 3.03751 1.84394 3.12003 1.80597 3.21091C1.76801 3.30179 1.74832 3.39926 1.74802 3.49775C1.74802 3.51875 1.74877 3.5395 1.75027 3.56C2.09527 8 4.30777 18.5 17.4553 19.25C17.6538 19.2619 17.8489 19.1945 17.9977 19.0625C18.1465 18.9306 18.2368 18.745 18.2488 18.5465L18.2503 18.5V14.54L15.4228 13.4075L13.2703 15.545L12.9103 15.5C6.38527 14.6825 5.50027 8.1575 5.50027 8.09L5.45527 7.73L7.58527 5.5775L6.46027 2.75L2.50027 2.75Z" fill="#FFFFFF"></path>
<path d="M18.2502 7.75V6.25L14.8107 6.25L19.7502 1.3105L18.6897 0.25L13.7502 5.1895V1.75L12.2502 1.75L12.2502 7.75L18.2502 7.75Z" fill="#FFFFFF"></path>
</svg>