<svg xmlns:xlink="http://www.w3.org/1999/xlink" width="33" height="32" viewBox="0 0 33 32" fill="none" xmlns="http://www.w3.org/2000/svg">
<path fill-rule="evenodd" clip-rule="evenodd" d="M16.4465 1.33325C8.34645 1.33325 1.77979 7.89992 1.77979 15.9999C1.77979 24.0999 8.34645 30.6666 16.4465 30.6666C24.5464 30.6666 31.1131 24.0999 31.1131 15.9999C31.1131 7.89992 24.5464 1.33325 16.4465 1.33325ZM22.8038 13.5199C22.9208 13.3861 23.01 13.2302 23.0659 13.0615C23.1218 12.8927 23.1434 12.7145 23.1295 12.5372C23.1155 12.36 23.0662 12.1873 22.9846 12.0294C22.9029 11.8715 22.7904 11.7315 22.6538 11.6177C22.5173 11.5039 22.3593 11.4185 22.1892 11.3667C22.0192 11.3148 21.8405 11.2975 21.6636 11.3157C21.4868 11.3339 21.3154 11.3873 21.1594 11.4728C21.0035 11.5582 20.8663 11.674 20.7558 11.8133L15.0225 18.6919L12.0558 15.7239C11.8043 15.481 11.4675 15.3466 11.1179 15.3497C10.7683 15.3527 10.4339 15.4929 10.1867 15.7402C9.93948 15.9874 9.79926 16.3218 9.79622 16.6714C9.79318 17.021 9.92757 17.3578 10.1705 17.6093L14.1705 21.6093C14.3015 21.7402 14.4583 21.8424 14.631 21.9093C14.8037 21.9763 14.9884 22.0065 15.1735 21.9981C15.3585 21.9897 15.5398 21.9428 15.7057 21.8605C15.8716 21.7782 16.0185 21.6622 16.1371 21.5199L22.8038 13.5199Z" fill="#FFFFFF"></path>
</svg>