<svg xmlns:xlink="http://www.w3.org/1999/xlink" width="25" height="24" viewBox="0 0 25 24" fill="none" xmlns="http://www.w3.org/2000/svg">
<g clip-path="url(#clip0_471_1001)" fill="none">
<path d="M24.1787 12C24.1787 5.57812 18.9756 0.375 12.5537 0.375C6.13184 0.375 0.928711 5.57812 0.928711 12C0.928711 18.4219 6.13184 23.625 12.5537 23.625C18.9756 23.625 24.1787 18.4219 24.1787 12ZM3.17871 12C3.17871 6.82031 7.37402 2.625 12.5537 2.625C17.7334 2.625 21.9287 6.82031 21.9287 12C21.9287 17.1797 17.7334 21.375 12.5537 21.375C7.37402 21.375 3.17871 17.1797 3.17871 12ZM6.55371 12.9375V11.0625C6.55371 10.7531 6.80684 10.5 7.11621 10.5H12.5537V7.35938C12.5537 6.85781 13.1584 6.60938 13.5146 6.96094L18.1553 11.6016C18.3756 11.8219 18.3756 12.1781 18.1553 12.3984L13.5146 17.0391C13.1584 17.3953 12.5537 17.1422 12.5537 16.6406V13.5H7.11621C6.80684 13.5 6.55371 13.2469 6.55371 12.9375Z" fill="#FFFFFF"></path>
</g>
<defs>
<clipPath id="clip0_471_1001">
<rect width="24" height="24" fill="white" transform="translate(0.553711)"></rect>
</clipPath>
</defs>
</svg>