<svg xmlns:xlink="http://www.w3.org/1999/xlink" xmlns="http://www.w3.org/2000/svg" width="49" height="49" viewBox="0 0 49 49" fill="none">
<circle cx="24.5762" cy="24.1311" r="24" fill="#3386FF" fill-opacity="0.8"/>
<path d="M24.1813 31.33C27.5904 31.33 30.0123 29.526 30.0051 26.9976C30.0123 25.2078 28.8404 23.9294 26.5961 23.6666V23.553C28.2793 23.3115 29.4725 22.1822 29.4654 20.5487C29.4725 18.1766 27.3276 16.3868 24.2097 16.3868C21.0705 16.3868 18.7836 18.205 18.7551 20.7902H22.1145C22.1429 19.7959 23.0378 19.1283 24.2097 19.1283C25.3248 19.1283 26.0847 19.803 26.0776 20.776C26.0847 21.7845 25.1898 22.4805 23.8972 22.4805H22.4838V24.9805H23.8972C25.3674 24.9805 26.3262 25.705 26.312 26.7277C26.3262 27.7575 25.4455 28.4749 24.1955 28.4749C22.9526 28.4749 22.0364 27.8143 22.0009 26.8555H18.464C18.4924 29.4834 20.8574 31.33 24.1813 31.33Z" fill="white"/>
</svg>