<svg xmlns:xlink="http://www.w3.org/1999/xlink" width="25" height="24" viewBox="0 0 25 24" fill="none" xmlns="http://www.w3.org/2000/svg">
<path d="M24.0346 12C24.0346 5.57812 18.8315 0.375 12.4096 0.375C5.98773 0.375 0.784607 5.57812 0.784607 12C0.784607 18.4219 5.98773 23.625 12.4096 23.625C18.8315 23.625 24.0346 18.4219 24.0346 12ZM3.03461 12C3.03461 6.82031 7.22992 2.625 12.4096 2.625C17.5893 2.625 21.7846 6.82031 21.7846 12C21.7846 17.1797 17.5893 21.375 12.4096 21.375C7.22992 21.375 3.03461 17.1797 3.03461 12ZM6.40961 12.9375V11.0625C6.40961 10.7531 6.66273 10.5 6.97211 10.5H12.4096V7.35938C12.4096 6.85781 13.0143 6.60938 13.3705 6.96094L18.0112 11.6016C18.2315 11.8219 18.2315 12.1781 18.0112 12.3984L13.3705 17.0391C13.0143 17.3953 12.4096 17.1422 12.4096 16.6406V13.5H6.97211C6.66273 13.5 6.40961 13.2469 6.40961 12.9375Z" fill="#FFFFFF"></path>
</svg>