<svg xmlns:xlink="http://www.w3.org/1999/xlink" xmlns="http://www.w3.org/2000/svg" width="33" height="32" viewBox="0 0 33 32" fill="none">
<path d="M16.5765 2.66675C9.2245 2.66675 3.24316 8.64808 3.24316 16.0001C3.24316 23.3521 9.2245 29.3334 16.5765 29.3334C23.9285 29.3334 29.9098 23.3521 29.9098 16.0001C29.9098 8.64808 23.9285 2.66675 16.5765 2.66675ZM16.5765 26.6667C10.6952 26.6667 5.90983 21.8814 5.90983 16.0001C5.90983 10.1187 10.6952 5.33341 16.5765 5.33341C22.4578 5.33341 27.2432 10.1187 27.2432 16.0001C27.2432 21.8814 22.4578 26.6667 16.5765 26.6667Z" fill="white"/>
<path d="M17.9098 9.33325H15.2432V17.3333H23.2432V14.6666H17.9098V9.33325Z" fill="white"/>
</svg>