<svg xmlns:xlink="http://www.w3.org/1999/xlink" xmlns="http://www.w3.org/2000/svg" width="49" height="48" viewBox="0 0 49 48" fill="none">
<path d="M25.8262 15C20.3122 15 15.8262 19.486 15.8262 25C15.8262 30.514 20.3122 35 25.8262 35C31.3402 35 35.8262 30.514 35.8262 25C35.8262 19.486 31.3402 15 25.8262 15ZM31.5762 26H24.8262V19H26.8262V24H31.5762V26Z" fill="white"/>
<circle cx="24.5762" cy="24" r="24" fill="#3386FF" fill-opacity="0.8"/>
<path d="M24.5762 14C19.0622 14 14.5762 18.486 14.5762 24C14.5762 29.514 19.0622 34 24.5762 34C30.0902 34 34.5762 29.514 34.5762 24C34.5762 18.486 30.0902 14 24.5762 14ZM24.5762 32C20.1652 32 16.5762 28.411 16.5762 24C16.5762 19.589 20.1652 16 24.5762 16C28.9872 16 32.5762 19.589 32.5762 24C32.5762 28.411 28.9872 32 24.5762 32Z" fill="white"/>
<path d="M25.5762 19H23.5762V25H29.5762V23H25.5762V19Z" fill="white"/>
</svg>