<svg xmlns:xlink="http://www.w3.org/1999/xlink" xmlns="http://www.w3.org/2000/svg" width="25" height="24" viewBox="0 0 25 24" fill="none">
<path d="M20.7212 8.26997L22.2842 6.70697L20.8702 5.29297L19.1622 6.99997C18.1122 6.36997 16.8882 5.99997 15.5762 5.99997C11.7172 5.99997 8.57617 9.13997 8.57617 13C8.57617 16.86 11.7172 20 15.5762 20C19.4352 20 22.5762 16.86 22.5762 13C22.5754 11.246 21.9129 9.55687 20.7212 8.26997ZM15.5762 18C12.8192 18 10.5762 15.757 10.5762 13C10.5762 10.243 12.8192 7.99997 15.5762 7.99997C18.3332 7.99997 20.5762 10.243 20.5762 13C20.5762 15.757 18.3332 18 15.5762 18Z" fill="white"/>
<path d="M14.5762 10H16.5762V14H14.5762V10ZM13.5762 3H17.5762V5H13.5762V3ZM3.57617 8H7.57617V10H3.57617V8ZM3.57617 16H7.57617V18H3.57617V16ZM2.57617 12H6.56617V14H2.57617V12Z" fill="white"/>
</svg>