<svg xmlns:xlink="http://www.w3.org/1999/xlink" xmlns="http://www.w3.org/2000/svg" width="33" height="32" viewBox="0 0 33 32" fill="none">
<path d="M16.8242 19.4026C16.0015 19.4026 15.5215 20.1853 15.5215 21.2333C15.5215 22.2879 16.0162 23.0333 16.8322 23.0333C17.6548 23.0333 18.1268 22.2493 18.1268 21.2013C18.1268 20.2333 17.6628 19.4026 16.8242 19.4026V19.4026Z" fill="white"/>
<path d="M19.2425 2.66675H8.57585C7.8686 2.66675 7.19033 2.9477 6.69023 3.4478C6.19013 3.94789 5.90918 4.62617 5.90918 5.33341V26.6667C5.90918 27.374 6.19013 28.0523 6.69023 28.5524C7.19033 29.0525 7.8686 29.3334 8.57585 29.3334H24.5758C25.2831 29.3334 25.9614 29.0525 26.4615 28.5524C26.9616 28.0523 27.2425 27.374 27.2425 26.6667V10.6667L19.2425 2.66675ZM12.7825 23.2721C12.2145 23.7441 11.3518 23.9667 10.2972 23.9667C9.66385 23.9667 9.21718 23.9267 8.91318 23.8867V18.5921C9.45847 18.5136 10.0089 18.4766 10.5598 18.4814C11.5838 18.4814 12.2478 18.6654 12.7665 19.0574C13.3265 19.4734 13.6785 20.1374 13.6785 21.0867C13.6785 22.1201 13.3025 22.8321 12.7825 23.2721V23.2721ZM16.7692 24.0001C15.1692 24.0001 14.2345 22.7921 14.2345 21.2561C14.2345 19.6414 15.2652 18.4347 16.8572 18.4347C18.5118 18.4347 19.4158 19.6734 19.4158 21.1614C19.4145 22.9281 18.3425 24.0001 16.7692 24.0001V24.0001ZM22.9758 22.9841C23.3425 22.9841 23.7505 22.9027 23.9918 22.8081L24.1758 23.7587C23.9518 23.8707 23.4478 23.9907 22.7932 23.9907C20.9305 23.9907 19.9705 22.8321 19.9705 21.2961C19.9705 19.4574 21.2812 18.4347 22.9132 18.4347C23.5452 18.4347 24.0238 18.5627 24.2398 18.6747L23.9918 19.6427C23.6672 19.5086 23.3191 19.4406 22.9678 19.4427C21.9998 19.4427 21.2478 20.0267 21.2478 21.2267C21.2478 22.3054 21.8878 22.9841 22.9758 22.9841V22.9841ZM19.2425 12.0001H17.9092V5.33341L24.5758 12.0001H19.2425Z" fill="white"/>
<path d="M10.6884 19.4172C10.4177 19.4172 10.2417 19.4412 10.1377 19.4652V22.9919C10.2417 23.0159 10.4097 23.0159 10.5604 23.0159C11.6644 23.0239 12.383 22.4172 12.383 21.1292C12.391 20.0092 11.7364 19.4172 10.6884 19.4172V19.4172Z" fill="white"/>
</svg>