<svg xmlns:xlink="http://www.w3.org/1999/xlink" xmlns="http://www.w3.org/2000/svg" width="33" height="32" viewBox="0 0 33 32" fill="none">
<path d="M6.20513 26.3705C6.82363 26.9899 7.55842 27.481 8.36729 27.8155C9.17615 28.15 10.0431 28.3214 10.9185 28.3199C11.794 28.3214 12.6612 28.15 13.4702 27.8155C14.2793 27.4809 15.0143 26.9899 15.6331 26.3705L19.4038 22.5985L17.5185 20.7132L13.7478 24.4852C12.9964 25.2332 11.9794 25.6532 10.9191 25.6532C9.8589 25.6532 8.84183 25.2332 8.09046 24.4852C7.3418 23.7342 6.9214 22.717 6.9214 21.6565C6.9214 20.5961 7.3418 19.5789 8.09046 18.8279L11.8625 15.0572L9.97713 13.1719L6.20513 16.9425C4.95687 18.1938 4.25586 19.8891 4.25586 21.6565C4.25586 23.424 4.95687 25.1193 6.20513 26.3705V26.3705ZM26.9465 15.0572C28.1941 13.8056 28.8946 12.1104 28.8946 10.3432C28.8946 8.57598 28.1941 6.88082 26.9465 5.6292C25.6952 4.38094 23.9999 3.67993 22.2325 3.67993C20.465 3.67993 18.7697 4.38094 17.5185 5.6292L13.7478 9.4012L15.6331 11.2865L19.4038 7.51453C20.1552 6.76652 21.1722 6.34657 22.2325 6.34657C23.2927 6.34657 24.3098 6.76652 25.0611 7.51453C25.8098 8.26556 26.2302 9.28276 26.2302 10.3432C26.2302 11.4036 25.8098 12.4208 25.0611 13.1719L21.2891 16.9425L23.1745 18.8279L26.9465 15.0572Z" fill="white"/>
<path d="M11.8613 22.5999L9.97461 20.7146L21.2906 9.3999L23.1759 11.2866L11.8613 22.5999Z" fill="white"/>
</svg>