<svg xmlns:xlink="http://www.w3.org/1999/xlink" xmlns="http://www.w3.org/2000/svg" width="25" height="24" viewBox="0 0 25 24" fill="none">
<path d="M21.2012 2.625H3.95117C3.53633 2.625 3.20117 2.96016 3.20117 3.375V20.625C3.20117 21.0398 3.53633 21.375 3.95117 21.375H21.2012C21.616 21.375 21.9512 21.0398 21.9512 20.625V3.375C21.9512 2.96016 21.616 2.625 21.2012 2.625ZM19.0355 8.09766H17.5379C16.3637 8.09766 16.1363 8.65547 16.1363 9.47578V11.2828H18.9395L18.5738 14.1117H16.1363V21.375H13.2137V14.1141H10.7691V11.2828H13.2137V9.19687C13.2137 6.77578 14.6926 5.45625 16.8535 5.45625C17.8895 5.45625 18.7777 5.53359 19.0379 5.56875V8.09766H19.0355Z" fill="#3386FF"/>
</svg>