<svg xmlns:xlink="http://www.w3.org/1999/xlink" xmlns="http://www.w3.org/2000/svg" width="33" height="33" viewBox="0 0 33 33" fill="none">
<path d="M27.4965 5.46436H5.90983C4.44316 5.46436 3.2565 6.66436 3.2565 8.13102V13.4644C4.72316 13.4644 5.90983 14.6644 5.90983 16.131C5.90983 17.5977 4.72316 18.7977 3.24316 18.7977V24.131C3.24316 25.5977 4.44316 26.7977 5.90983 26.7977H27.2432C28.7098 26.7977 29.9098 25.5977 29.9098 24.131V8.13102C29.9098 6.66436 28.8298 5.46436 27.4965 5.46436ZM27.2432 24.131H5.90983V20.7444C7.4965 19.8244 8.5765 18.091 8.5765 16.131C8.5765 14.1577 7.50983 12.4377 5.92316 11.5177L5.90983 8.13102H27.2432V24.131Z" fill="white" fill-opacity="0.8"/>
<path d="M24.2161 17.8646C24.9095 17.6646 25.3095 16.9579 25.1361 16.2779C25.0465 15.9498 24.8308 15.6704 24.5361 15.5006C24.2415 15.3308 23.8916 15.2843 23.5628 15.3712L20.3095 16.2379L14.9628 11.2512L13.0961 11.7579L16.2961 17.3046L13.1095 18.1579L11.4295 16.8379L10.1895 17.1712L12.4028 21.0112L24.2161 17.8646V17.8646Z" fill="#3386FF"/>
</svg>