<svg xmlns:xlink="http://www.w3.org/1999/xlink" xmlns="http://www.w3.org/2000/svg" width="109" height="109" viewBox="0 0 109 109" fill="none">
<path d="M0.57574 54.0306C0.575741 60.9666 1.9419 67.8347 4.5962 74.2428C7.25051 80.6509 11.141 86.4734 16.0455 91.3779C20.95 96.2824 26.7726 100.173 33.1806 102.827C39.5887 105.482 46.4568 106.848 53.3929 106.848C60.3289 106.848 67.197 105.482 73.6051 102.827C80.0132 100.173 85.8357 96.2824 90.7402 91.3779C95.6447 86.4734 99.5352 80.6508 102.189 74.2428C104.844 67.8347 106.21 60.9666 106.21 54.0305L90.3648 54.0305C90.3648 58.8858 89.4085 63.6935 87.5505 68.1791C85.6925 72.6648 82.9692 76.7405 79.536 80.1737C76.1028 83.6068 72.0271 86.3302 67.5414 88.1882C63.0558 90.0462 58.2481 91.0025 53.3929 91.0025C48.5376 91.0025 43.7299 90.0462 39.2443 88.1882C34.7586 86.3302 30.6829 83.6069 27.2497 80.1737C23.8166 76.7405 21.0932 72.6648 19.2352 68.1791C17.3772 63.6935 16.4209 58.8858 16.4209 54.0306L0.57574 54.0306Z" fill="url(#paint0_linear_471_775)" fill-opacity="0.9"/>
<g clip-path="url(#clip0_471_775)">
<path d="M51.992 29.1934L44.1485 29.1934C41.5359 29.1945 41.5348 26.5797 44.1508 26.5797L65.0651 26.5797C67.6777 26.5785 67.6789 29.1934 65.064 29.1923L57.2217 29.1934C57.2217 29.1934 59.8354 31.8071 59.8354 37.0369L59.8365 42.2654L80.1813 42.2654C81.0256 42.2656 81.8352 42.601 82.4321 43.198C83.0291 43.7949 83.3645 44.6045 83.3646 45.4488L83.3658 48.0388C83.366 48.655 83.1875 49.258 82.8518 49.7747C82.5162 50.2914 82.0378 50.6996 81.4747 50.9498L59.8354 60.5672L57.2217 78.8679L64.0262 81.136C64.3692 81.2495 64.6605 81.4816 64.8477 81.7906C65.035 82.0995 65.106 82.4651 65.048 82.8217C64.99 83.1783 64.8067 83.5026 64.5311 83.7362C64.2555 83.9698 63.9057 84.0976 63.5444 84.0964L45.6692 84.0964C45.3067 84.0992 44.9552 83.9722 44.6781 83.7384C44.4011 83.5046 44.2168 83.1794 44.1586 82.8216C44.1005 82.4638 44.1722 82.0969 44.3609 81.7874C44.5496 81.4778 44.8428 81.246 45.1875 81.1338L51.9931 78.8667L49.3782 60.5672L27.7389 50.9498C27.1762 50.6995 26.6982 50.2914 26.3628 49.7749C26.0273 49.2585 25.8488 48.6558 25.849 48.04L25.849 45.451C25.8489 45.0328 25.9312 44.6187 26.0912 44.2323C26.2512 43.8459 26.4858 43.4948 26.7815 43.1991C27.0772 42.9034 27.4283 42.6688 27.8147 42.5088C28.2011 42.3488 28.6152 42.2665 29.0334 42.2666L49.3771 42.2654L49.3782 37.0369C49.3782 31.8071 51.992 29.1934 51.992 29.1934V29.1934Z" fill="url(#paint1_linear_471_775)"/>
</g>
<defs>
<linearGradient id="paint0_linear_471_775" x1="53.3929" y1="106.848" x2="53.3928" y2="1.21344" gradientUnits="userSpaceOnUse">
<stop stop-color="#3386FF"/>
<stop offset="1" stop-color="#3386FF" stop-opacity="0"/>
</linearGradient>
<linearGradient id="paint1_linear_471_775" x1="74.2644" y1="34.6963" x2="34.9464" y2="74.0143" gradientUnits="userSpaceOnUse">
<stop stop-color="#201351"/>
<stop offset="1" stop-color="#201351" stop-opacity="0.65"/>
</linearGradient>
<clipPath id="clip0_471_775">
<rect width="76.4109" height="76.4109" fill="white" transform="translate(54.6064) rotate(45)"/>
</clipPath>
</defs>
</svg>