<svg xmlns:xlink="http://www.w3.org/1999/xlink" xmlns="http://www.w3.org/2000/svg" width="109" height="109" viewBox="0 0 109 109" fill="none">
<path d="M108.761 54.0305C108.761 47.0944 107.395 40.2263 104.741 33.8183C102.086 27.4102 98.1959 21.5877 93.2914 16.6832C88.3869 11.7786 82.5644 7.88815 76.1563 5.23384C69.7482 2.57953 62.8801 1.21338 55.9441 1.21338C49.008 1.21338 42.1399 2.57953 35.7318 5.23384C29.3238 7.88815 23.5012 11.7786 18.5967 16.6832C13.6922 21.5877 9.80172 27.4102 7.14741 33.8183C4.49311 40.2263 3.12695 47.0945 3.12695 54.0305L18.9721 54.0305C18.9721 49.1753 19.9284 44.3676 21.7864 39.8819C23.6444 35.3963 26.3678 31.3205 29.8009 27.8874C33.2341 24.4542 37.3099 21.7309 41.7955 19.8728C46.2811 18.0148 51.0888 17.0585 55.9441 17.0585C60.7993 17.0585 65.607 18.0148 70.0926 19.8728C74.5783 21.7309 78.654 24.4542 82.0872 27.8874C85.5204 31.3205 88.2437 35.3963 90.1017 39.8819C91.9597 44.3676 92.916 49.1753 92.916 54.0305H108.761Z" fill="#3386FF" fill-opacity="0.9"/>
<g clip-path="url(#clip0_471_777)">
<path d="M57.345 78.8679L65.1884 78.8679C67.801 78.8668 67.8021 81.4816 65.1862 81.4816L44.2718 81.4816C41.6592 81.4827 41.658 78.8679 44.2729 78.869L52.1152 78.8679C52.1152 78.8679 49.5015 76.2541 49.5015 71.0244L49.5004 65.7958L29.1556 65.7958C28.3113 65.7957 27.5017 65.4603 26.9048 64.8633C26.3078 64.2664 25.9724 63.4568 25.9723 62.6125L25.9711 60.0224C25.9709 59.4063 26.1494 58.8033 26.4851 58.2866C26.8208 57.7699 27.2991 57.3617 27.8622 57.1115L49.5015 47.4941L52.1152 29.1934L45.3108 26.9253C44.9678 26.8118 44.6765 26.5797 44.4892 26.2707C44.3019 25.9618 44.2309 25.5962 44.2889 25.2396C44.347 24.883 44.5302 24.5587 44.8058 24.3251C45.0814 24.0915 45.4312 23.9637 45.7925 23.9648L63.6677 23.9648C64.0302 23.9621 64.3817 24.0891 64.6588 24.3229C64.9358 24.5567 65.1201 24.8819 65.1783 25.2397C65.2365 25.5975 65.1647 25.9644 64.976 26.2739C64.7874 26.5834 64.4942 26.8153 64.1495 26.9275L57.3438 29.1946L59.9587 47.4941L81.598 57.1115C82.1607 57.3618 82.6387 57.7699 82.9742 58.2863C83.3096 58.8028 83.4881 59.4055 83.4879 60.0213L83.4879 62.6103C83.488 63.0285 83.4057 63.4426 83.2457 63.829C83.0857 64.2154 82.8511 64.5665 82.5554 64.8622C82.2597 65.1579 81.9086 65.3925 81.5222 65.5525C81.1358 65.7125 80.7217 65.7948 80.3035 65.7947L59.9598 65.7958L59.9587 71.0244C59.9587 76.2541 57.345 78.8679 57.345 78.8679V78.8679Z" fill="url(#paint0_linear_471_777)"/>
</g>
<defs>
<linearGradient id="paint0_linear_471_777" x1="35.0725" y1="73.365" x2="74.3906" y2="34.047" gradientUnits="userSpaceOnUse">
<stop stop-color="#201351"/>
<stop offset="1" stop-color="#201351" stop-opacity="0.71"/>
</linearGradient>
<clipPath id="clip0_471_777">
<rect width="76.4109" height="76.4109" fill="white" transform="translate(54.7305 108.061) rotate(-135)"/>
</clipPath>
</defs>
</svg>