<svg xmlns:xlink="http://www.w3.org/1999/xlink" xmlns="http://www.w3.org/2000/svg" width="109" height="109" viewBox="0 0 109 109" fill="none">
<path d="M54.6687 5.87264e-05C47.7326 5.90296e-05 40.8645 1.36621 34.4564 4.02052C28.0484 6.67483 22.2259 10.5653 17.3213 15.4698C12.4168 20.3744 8.52633 26.1969 5.87202 32.6049C3.21771 39.013 1.85156 45.8811 1.85156 52.8172C1.85156 59.7532 3.21772 66.6213 5.87203 73.0294C8.52633 79.4375 12.4168 85.26 17.3213 90.1645C22.2259 95.069 28.0484 98.9595 34.4564 101.614C40.8645 104.268 47.7326 105.634 54.6687 105.634L54.6687 89.7891C49.8134 89.7891 45.0058 88.8328 40.5201 86.9748C36.0345 85.1168 31.9587 82.3935 28.5255 78.9603C25.0924 75.5271 22.369 71.4514 20.511 66.9657C18.653 62.4801 17.6967 57.6724 17.6967 52.8172C17.6967 47.9619 18.653 43.1543 20.511 38.6686C22.369 34.183 25.0924 30.1072 28.5255 26.674C31.9587 23.2409 36.0345 20.5175 40.5201 18.6595C45.0058 16.8015 49.8134 15.8452 54.6687 15.8452L54.6687 5.87264e-05Z" fill="#3386FF" fill-opacity="0.9"/>
<g clip-path="url(#clip0_471_776)">
<path d="M79.5061 51.4158L79.5061 43.5723C79.5049 40.9597 82.1198 40.9586 82.1198 43.5746L82.1198 64.489C82.1209 67.1016 79.5061 67.1027 79.5072 64.4878L79.5061 56.6455C79.5061 56.6455 76.8923 59.2592 71.6626 59.2592L66.434 59.2604L66.434 79.6052C66.4339 80.4494 66.0985 81.259 65.5015 81.856C64.9045 82.4529 64.0949 82.7883 63.2507 82.7885L60.6606 82.7896C60.0445 82.7899 59.4415 82.6113 58.9248 82.2757C58.4081 81.94 57.9999 81.4616 57.7497 80.8985L48.1323 59.2592L29.8316 56.6455L27.5634 63.45C27.4499 63.793 27.2179 64.0843 26.9089 64.2716C26.5999 64.4588 26.2343 64.5298 25.8777 64.4718C25.5211 64.4138 25.1969 64.2305 24.9633 63.9549C24.7296 63.6793 24.6019 63.3295 24.603 62.9682L24.603 45.0931C24.6002 44.7305 24.7272 44.379 24.961 44.102C25.1949 43.8249 25.5201 43.6406 25.8779 43.5825C26.2357 43.5243 26.6025 43.596 26.9121 43.7847C27.2216 43.9734 27.4535 44.2666 27.5657 44.6113L29.8327 51.4169L48.1323 48.802L57.7497 27.1628C58 26.6001 58.4081 26.122 58.9245 25.7866C59.441 25.4511 60.0437 25.2727 60.6595 25.2728L63.2485 25.2728C63.6667 25.2727 64.0808 25.355 64.4672 25.515C64.8536 25.675 65.2047 25.9096 65.5004 26.2053C65.7961 26.501 66.0307 26.8521 66.1907 27.2385C66.3507 27.6249 66.433 28.039 66.4329 28.4572L66.434 48.8009L71.6626 48.802C76.8923 48.802 79.5061 51.4158 79.5061 51.4158V51.4158Z" fill="url(#paint0_linear_471_776)"/>
</g>
<defs>
<linearGradient id="paint0_linear_471_776" x1="74.0032" y1="73.6882" x2="34.6852" y2="34.3702" gradientUnits="userSpaceOnUse">
<stop stop-color="#201351"/>
<stop offset="1" stop-color="#201351" stop-opacity="0.67"/>
</linearGradient>
<clipPath id="clip0_471_776">
<rect width="76.4109" height="76.4109" fill="white" transform="translate(108.699 54.0308) rotate(135)"/>
</clipPath>
</defs>
</svg>