<svg xmlns:xlink="http://www.w3.org/1999/xlink" xmlns="http://www.w3.org/2000/svg" width="33" height="32" viewBox="0 0 33 32" fill="none">
<path d="M3.24316 18.0865C3.24316 15.3492 5.90983 14.6665 8.5765 14.6665V26.6665C7.16201 26.6665 5.80546 26.1046 4.80526 25.1044C3.80507 24.1042 3.24316 22.7477 3.24316 21.3332V18.0865Z" stroke="#3386FF" stroke-width="2" stroke-linecap="round" stroke-linejoin="round"/>
<path d="M29.9095 18.0865C29.9095 15.3492 27.2428 14.6665 24.5762 14.6665V26.6665C25.9907 26.6665 27.3472 26.1046 28.3474 25.1044C29.3476 24.1042 29.9095 22.7477 29.9095 21.3332V18.0865Z" stroke="#3386FF" stroke-width="2" stroke-linecap="round" stroke-linejoin="round"/>
<path d="M8.57617 26.6666V13.3333C8.57617 11.2115 9.41903 9.17669 10.9193 7.6764C12.4196 6.17611 14.4544 5.33325 16.5762 5.33325C18.6979 5.33325 20.7327 6.17611 22.233 7.6764C23.7333 9.17669 24.5762 11.2115 24.5762 13.3333V26.6666" stroke="black" stroke-width="2" stroke-linecap="round" stroke-linejoin="round"/>
</svg>