<svg xmlns:xlink="http://www.w3.org/1999/xlink" xmlns="http://www.w3.org/2000/svg" width="51" height="50" viewBox="0 0 51 50" fill="none">
<circle cx="25.5762" cy="25" r="25" fill="#3386FF" fill-opacity="0.8"/>
<path d="M25.5762 15C23.4682 14.9999 21.4454 15.8318 19.9474 17.3148C18.4494 18.7978 17.5973 20.8122 17.5762 22.92C17.5762 28.4 24.6262 34.5 24.9262 34.76C25.1073 34.9149 25.3378 35.0001 25.5762 35.0001C25.8145 35.0001 26.045 34.9149 26.2262 34.76C26.5762 34.5 33.5762 28.4 33.5762 22.92C33.5551 20.8122 32.7029 18.7978 31.2049 17.3148C29.7069 15.8318 27.6841 14.9999 25.5762 15ZM25.5762 32.65C23.9062 31.06 19.5762 26.65 19.5762 22.92C19.5762 21.3287 20.2083 19.8026 21.3335 18.6774C22.4587 17.5521 23.9849 16.92 25.5762 16.92C27.1675 16.92 28.6936 17.5521 29.8188 18.6774C30.944 19.8026 31.5762 21.3287 31.5762 22.92C31.5762 26.62 27.2462 31.06 25.5762 32.65Z" fill="white"/>
<path d="M25.5762 19C24.8839 19 24.2072 19.2053 23.6317 19.5899C23.0561 19.9744 22.6075 20.5211 22.3426 21.1606C22.0777 21.8001 22.0084 22.5039 22.1434 23.1828C22.2785 23.8618 22.6118 24.4854 23.1013 24.9749C23.5908 25.4644 24.2144 25.7977 24.8934 25.9327C25.5723 26.0678 26.276 25.9985 26.9156 25.7336C27.5551 25.4687 28.1017 25.0201 28.4863 24.4445C28.8709 23.8689 29.0762 23.1922 29.0762 22.5C29.0762 21.5717 28.7074 20.6815 28.051 20.0251C27.3947 19.3687 26.5044 19 25.5762 19V19ZM25.5762 24C25.2795 24 24.9895 23.912 24.7428 23.7472C24.4961 23.5824 24.3039 23.3481 24.1904 23.074C24.0768 22.7999 24.0471 22.4983 24.105 22.2074C24.1629 21.9164 24.3057 21.6491 24.5155 21.4393C24.7253 21.2296 24.9926 21.0867 25.2835 21.0288C25.5745 20.9709 25.8761 21.0006 26.1502 21.1142C26.4243 21.2277 26.6586 21.42 26.8234 21.6666C26.9882 21.9133 27.0762 22.2033 27.0762 22.5C27.0762 22.8978 26.9181 23.2794 26.6368 23.5607C26.3555 23.842 25.974 24 25.5762 24Z" fill="white"/>
</svg>