<svg xmlns:xlink="http://www.w3.org/1999/xlink" xmlns="http://www.w3.org/2000/svg" width="49" height="48" viewBox="0 0 49 48" fill="none">
<circle cx="24.5762" cy="24" r="24" fill="#3386FF" fill-opacity="0.8"/>
<path d="M24.576 14.25C24.108 14.25 23.64 14.4098 23.241 14.6955L21.996 15.5625L20.568 15.75H20.5455L20.5215 15.7725C20.0519 15.8782 19.622 16.115 19.2817 16.4555C18.9414 16.7959 18.7048 17.2259 18.5992 17.6955L18.5767 17.718V17.742L18.3892 19.1955L17.5222 20.3205L17.4982 20.343V20.367C16.9747 21.2055 16.9507 22.287 17.5222 23.0858L18.411 24.33L18.6465 25.6185L16.2315 29.2988L15.459 30.4462H19.0447L19.9117 32.4623L20.4517 33.7523L21.2242 32.58L23.5927 29.0175C24.2272 29.28 24.9472 29.3025 25.5607 29.0175L27.9285 32.58L28.701 33.75L29.241 32.46L30.1072 30.4455H33.693L32.9205 29.2965L30.576 25.7347L30.7635 24.3285L31.6305 23.0865L31.6545 23.064V23.0415C32.178 22.2015 32.202 21.1455 31.6305 20.3452L30.7635 19.1025L30.4822 17.6955H30.5047C30.5047 17.6767 30.4845 17.6655 30.4822 17.6483C30.3472 16.668 29.5695 15.8707 28.5847 15.7507H28.5607L27.1545 15.5632L25.9117 14.6963C25.5238 14.412 25.0568 14.256 24.576 14.25V14.25ZM24.576 15.7725C24.7485 15.7725 24.9195 15.825 25.0447 15.915L26.3797 16.875L26.5447 16.992L26.7322 17.016L28.3732 17.25H28.3957C28.7317 17.2875 28.9687 17.5238 29.0055 17.8598V17.9062L29.3107 19.5713L29.3332 19.734L29.451 19.875L30.411 21.21C30.591 21.4612 30.6135 21.8805 30.3885 22.242L29.451 23.5545L29.334 23.7195L29.31 23.907L29.076 25.5465V25.569C29.0643 25.6864 29.0241 25.7992 28.959 25.8975L28.9117 25.9215V25.9455C28.8 26.0789 28.6402 26.163 28.467 26.1795H28.4205L26.7105 26.4847L26.523 26.5073L26.3805 26.625L25.0455 27.585C24.7957 27.765 24.3525 27.7875 23.991 27.5625L22.7715 26.625L22.6305 26.508L22.4205 26.484L20.7787 26.25H20.7547C20.6486 26.2413 20.5462 26.2069 20.4564 26.1496C20.3666 26.0924 20.2921 26.0141 20.2395 25.9215C20.1892 25.8351 20.157 25.7394 20.145 25.6403V25.5938L19.8405 23.8838L19.8165 23.6963L19.6995 23.5537L18.7395 22.2188C18.5595 21.969 18.537 21.5257 18.762 21.1642L19.6995 19.9448L19.8165 19.8037L19.839 19.5938L20.0512 18.0225C20.0527 18.012 20.0707 18.0112 20.0737 18C20.1208 17.8196 20.2151 17.655 20.3469 17.5232C20.4787 17.3913 20.6433 17.297 20.8237 17.25C20.835 17.247 20.8357 17.229 20.8462 17.2275L22.4175 17.016L22.605 16.992L22.77 16.875L24.105 15.915C24.2302 15.825 24.402 15.7725 24.5737 15.7725H24.576ZM29.7555 27.1875L30.9045 28.9455H29.0985L28.911 29.4142L28.3965 30.609L26.8027 28.1715L27.1537 27.9135L28.6297 27.6547V27.6772C28.6485 27.6772 28.6597 27.657 28.677 27.6547C29.0714 27.5976 29.4433 27.4357 29.754 27.186L29.7555 27.1875ZM19.3965 27.21C19.7167 27.4965 20.1217 27.696 20.568 27.75H20.5905L22.0215 27.9375L22.3492 28.1955L20.7562 30.609L20.241 29.4142L20.0535 28.9448H18.246L19.395 27.21H19.3965Z" fill="white"/>
</svg>