<svg xmlns:xlink="http://www.w3.org/1999/xlink" xmlns="http://www.w3.org/2000/svg" width="51" height="50" viewBox="0 0 51 50" fill="none">
<circle cx="25.5762" cy="25" r="25" fill="#3386FF" fill-opacity="0.8"/>
<g clip-path="url(#clip0_477_1967)">
<path d="M34.5762 14.5C34.974 14.5 35.3555 14.658 35.6368 14.9393C35.9181 15.2206 36.0762 15.6022 36.0762 16V28C36.0762 28.3978 35.9181 28.7794 35.6368 29.0607C35.3555 29.342 34.974 29.5 34.5762 29.5L20.1972 29.5C19.4016 29.5002 18.6387 29.8164 18.0762 30.379L15.0762 33.379L15.0762 16C15.0762 15.6022 15.2342 15.2206 15.5155 14.9393C15.7968 14.658 16.1783 14.5 16.5762 14.5L34.5762 14.5ZM16.5762 13C15.7805 13 15.0175 13.3161 14.4549 13.8787C13.8922 14.4413 13.5762 15.2044 13.5762 16L13.5762 35.1895C13.5762 35.3379 13.6203 35.483 13.7028 35.6063C13.7853 35.7297 13.9025 35.8258 14.0397 35.8825C14.1768 35.9392 14.3277 35.9539 14.4732 35.9248C14.6187 35.8957 14.7524 35.8241 14.8572 35.719L19.1367 31.4395C19.4179 31.1582 19.7994 31.0001 20.1972 31L34.5762 31C35.3718 31 36.1349 30.6839 36.6975 30.1213C37.2601 29.5587 37.5762 28.7957 37.5762 28V16C37.5762 15.2044 37.2601 14.4413 36.6975 13.8787C36.1349 13.3161 35.3718 13 34.5762 13L16.5762 13Z" fill="white"/>
<path d="M18.0762 18.25C18.0762 18.0511 18.1552 17.8603 18.2958 17.7197C18.4365 17.579 18.6273 17.5 18.8262 17.5L32.3262 17.5C32.5251 17.5 32.7159 17.579 32.8565 17.7197C32.9972 17.8603 33.0762 18.0511 33.0762 18.25C33.0762 18.4489 32.9972 18.6397 32.8565 18.7803C32.7159 18.921 32.5251 19 32.3262 19L18.8262 19C18.6273 19 18.4365 18.921 18.2958 18.7803C18.1552 18.6397 18.0762 18.4489 18.0762 18.25ZM18.0762 22C18.0762 21.8011 18.1552 21.6103 18.2958 21.4697C18.4365 21.329 18.6273 21.25 18.8262 21.25L32.3262 21.25C32.5251 21.25 32.7159 21.329 32.8565 21.4697C32.9972 21.6103 33.0762 21.8011 33.0762 22C33.0762 22.1989 32.9972 22.3897 32.8565 22.5303C32.7159 22.671 32.5251 22.75 32.3262 22.75L18.8262 22.75C18.6273 22.75 18.4365 22.671 18.2958 22.5303C18.1552 22.3897 18.0762 22.1989 18.0762 22ZM18.0762 25.75C18.0762 25.5511 18.1552 25.3603 18.2958 25.2197C18.4365 25.079 18.6273 25 18.8262 25H26.3262C26.5251 25 26.7159 25.079 26.8565 25.2197C26.9972 25.3603 27.0762 25.5511 27.0762 25.75C27.0762 25.9489 26.9972 26.1397 26.8565 26.2803C26.7159 26.421 26.5251 26.5 26.3262 26.5H18.8262C18.6273 26.5 18.4365 26.421 18.2958 26.2803C18.1552 26.1397 18.0762 25.9489 18.0762 25.75Z" fill="white"/>
</g>
<defs>
<clipPath id="clip0_477_1967">
<rect width="24" height="24" fill="white" transform="translate(13.5762 13)"/>
</clipPath>
</defs>
</svg>