<svg xmlns:xlink="http://www.w3.org/1999/xlink" xmlns="http://www.w3.org/2000/svg" width="33" height="33" viewBox="0 0 33 33" fill="none">
<g clip-path="url(#clip0_471_781)">
<path d="M16.5762 20.1311C17.637 20.1311 18.6545 19.7097 19.4046 18.9595C20.1547 18.2094 20.5762 17.192 20.5762 16.1311C20.5762 15.0702 20.1547 14.0528 19.4046 13.3027C18.6545 12.5525 17.637 12.1311 16.5762 12.1311C15.5153 12.1311 14.4979 12.5525 13.7477 13.3027C12.9976 14.0528 12.5762 15.0702 12.5762 16.1311C12.5762 17.192 12.9976 18.2094 13.7477 18.9595C14.4979 19.7097 15.5153 20.1311 16.5762 20.1311V20.1311Z" fill="#3386FF"/>
<path d="M0.576172 8.1311C0.576172 7.60067 0.786886 7.09196 1.16196 6.71689C1.53703 6.34182 2.04574 6.1311 2.57617 6.1311H30.5762C31.1066 6.1311 31.6153 6.34182 31.9904 6.71689C32.3655 7.09196 32.5762 7.60067 32.5762 8.1311V24.1311C32.5762 24.6615 32.3655 25.1702 31.9904 25.5453C31.6153 25.9204 31.1066 26.1311 30.5762 26.1311H2.57617C2.04574 26.1311 1.53703 25.9204 1.16196 25.5453C0.786886 25.1702 0.576172 24.6615 0.576172 24.1311V8.1311ZM6.57617 8.1311C6.57617 9.19197 6.15474 10.2094 5.4046 10.9595C4.65445 11.7097 3.63704 12.1311 2.57617 12.1311V20.1311C3.63704 20.1311 4.65445 20.5525 5.4046 21.3027C6.15474 22.0528 6.57617 23.0702 6.57617 24.1311H26.5762C26.5762 23.0702 26.9976 22.0528 27.7477 21.3027C28.4979 20.5525 29.5153 20.1311 30.5762 20.1311V12.1311C29.5153 12.1311 28.4979 11.7097 27.7477 10.9595C26.9976 10.2094 26.5762 9.19197 26.5762 8.1311H6.57617Z" fill="white" fill-opacity="0.8"/>
</g>
<defs>
<clipPath id="clip0_471_781">
<rect width="32" height="32" fill="white" transform="translate(0.576172 0.131104)"/>
</clipPath>
</defs>
</svg>