<svg xmlns:xlink="http://www.w3.org/1999/xlink" xmlns="http://www.w3.org/2000/svg" width="49" height="48" viewBox="0 0 49 48" fill="none">
<path d="M17.9092 29.048L30.1462 16.81C30.6296 16.3474 31.275 16.0925 31.9441 16.0998C32.6132 16.1071 33.2528 16.3761 33.7261 16.8492C34.1993 17.3223 34.4685 17.9618 34.476 18.6309C34.4835 19.3 34.2287 19.9455 33.7662 20.429L21.5272 32.667C21.248 32.9463 20.8924 33.1366 20.5052 33.214L16.5762 34L17.3622 30.07C17.4396 29.6828 17.6299 29.3272 17.9092 29.048V29.048Z" stroke="white" stroke-width="2" stroke-linecap="round" stroke-linejoin="round"/>
<path d="M28.0762 19.5L31.0762 22.5" stroke="white" stroke-width="2"/>
<circle cx="24.5762" cy="24" r="24" fill="#3386FF" fill-opacity="0.8"/>
<path d="M16.9092 28.048L29.1462 15.81C29.6296 15.3474 30.275 15.0925 30.9441 15.0998C31.6132 15.1071 32.2528 15.3761 32.7261 15.8492C33.1993 16.3223 33.4685 16.9618 33.476 17.6309C33.4835 18.3 33.2287 18.9455 32.7662 19.429L20.5272 31.667C20.248 31.9463 19.8924 32.1366 19.5052 32.214L15.5762 33L16.3622 29.07C16.4396 28.6828 16.6299 28.3272 16.9092 28.048V28.048Z" stroke="white" stroke-width="2" stroke-linecap="round" stroke-linejoin="round"/>
<path d="M27.0762 18.5L30.0762 21.5" stroke="white" stroke-width="2"/>
</svg>