<svg xmlns:xlink="http://www.w3.org/1999/xlink" xmlns="http://www.w3.org/2000/svg" width="51" height="50" viewBox="0 0 51 50" fill="none">
<circle cx="25.5762" cy="25" r="25" fill="#3386FF" fill-opacity="0.8"/>
<path d="M33.0766 34.75H32.9266C18.2266 33.925 16.1266 21.475 15.8266 17.65C15.7516 16.45 16.6516 15.325 17.9266 15.25L22.0516 15.25C22.6516 15.25 23.2516 15.625 23.4766 16.225L24.5266 19C24.7516 19.525 24.6016 20.2 24.2266 20.65L22.6516 22.225C23.1766 25.15 25.4266 27.4 28.3516 27.925L30.0016 26.35C30.4516 25.9 31.0516 25.825 31.6516 26.05L34.5016 27.175C35.0266 27.4 35.4016 27.925 35.4016 28.6V32.5C35.3266 33.775 34.3516 34.75 33.0766 34.75V34.75ZM18.0766 16.75C17.6266 16.75 17.3266 17.05 17.3266 17.5V17.575C17.7016 22 19.8766 32.5 33.0016 33.25C33.4516 33.25 33.7516 32.95 33.8266 32.575V28.525L30.9766 27.4L28.8016 29.575L28.5016 29.5C21.9766 28.675 21.0766 22.15 21.0766 22.075L21.0016 21.7L23.1016 19.525L22.0516 16.75H18.0766Z" fill="white"/>
<path d="M28.5762 16V17.5H32.0262L27.0762 22.45L28.1262 23.5L33.0762 18.55V22H34.5762V16L28.5762 16Z" fill="white"/>
</svg>