<svg xmlns:xlink="http://www.w3.org/1999/xlink" xmlns="http://www.w3.org/2000/svg" width="49" height="48" viewBox="0 0 49 48" fill="none">
<circle cx="24.5762" cy="24" r="24" fill="#3386FF" fill-opacity="0.8"/>
<path d="M20.4583 20.679C20.4563 20.7274 20.4642 20.7758 20.4815 20.8211C20.4988 20.8664 20.5252 20.9076 20.5591 20.9423C20.5929 20.977 20.6335 21.0044 20.6784 21.0229C20.7232 21.0413 20.7713 21.0504 20.8198 21.0495H22.0573C22.2643 21.0495 22.4293 20.88 22.4563 20.6745C22.5913 19.6905 23.2663 18.9735 24.4693 18.9735C25.4983 18.9735 26.4403 19.488 26.4403 20.7255C26.4403 21.678 25.8793 22.116 24.9928 22.782C23.9833 23.5155 23.1838 24.372 23.2408 25.7625L23.2453 26.088C23.2469 26.1864 23.2871 26.2803 23.3573 26.3493C23.4274 26.4183 23.5219 26.457 23.6203 26.457H24.8368C24.9363 26.457 25.0317 26.4175 25.102 26.3472C25.1723 26.2768 25.2118 26.1815 25.2118 26.082V25.9245C25.2118 24.8475 25.6213 24.534 26.7268 23.6955C27.6403 23.001 28.5928 22.23 28.5928 20.6115C28.5928 18.345 26.6788 17.25 24.5833 17.25C22.6828 17.25 20.6008 18.135 20.4583 20.679V20.679ZM22.7938 29.3235C22.7938 30.123 23.4313 30.714 24.3088 30.714C25.2223 30.714 25.8508 30.123 25.8508 29.3235C25.8508 28.4955 25.2208 27.9135 24.3073 27.9135C23.4313 27.9135 22.7938 28.4955 22.7938 29.3235Z" fill="white"/>
</svg>