<svg xmlns:xlink="http://www.w3.org/1999/xlink" width="19" height="22" viewBox="0 0 19 22" fill="none" xmlns="http://www.w3.org/2000/svg">
<path d="M18.4096 10C18.4096 15.55 14.5696 20.74 9.40961 22C4.24961 20.74 0.409607 15.55 0.409607 10V4L9.40961 0L18.4096 4V10ZM9.40961 20C13.1596 19 16.4096 14.54 16.4096 10.22V5.3L9.40961 2.18L2.40961 5.3V10.22C2.40961 14.54 5.65961 19 9.40961 20ZM9.40961 4.68C9.90961 4.68 10.3596 5.11 10.3596 5.63V9.11L15.4096 12.26V13.53L10.3596 11.95V15.42L11.6196 16.37V17.32L9.40961 16.68L7.19961 17.32V16.37L8.45961 15.42V11.95L3.40961 13.53V12.26L8.45961 9.11V5.63C8.45961 5.11 8.90961 4.68 9.40961 4.68Z" fill="#3976EE" fill-opacity="0.99"></path>
</svg>