<svg xmlns="http://www.w3.org/2000/svg" xmlns:xlink="http://www.w3.org/1999/xlink" viewBox="0 0 740 530" width="740" height="530" preserveAspectRatio="xMidYMid meet" style="width: 100%; height: 100%; transform: translate3d(0px, 0px, 0px); content-visibility: visible;"><defs><clipPath id="__lottie_element_2"><rect width="740" height="530" x="0" y="0"></rect></clipPath></defs><g clip-path="url(#__lottie_element_2)"><g transform="matrix(1,0,0,1,370,265)" opacity="1" style="display: block;"><g opacity="1" transform="matrix(1,0,0,1,0,0)"><path stroke-linecap="round" stroke-linejoin="round" fill-opacity="0" stroke="#1F1351" stroke-opacity="1" stroke-width="55px" d=" M-327,0 C-327,0 327,0 327,0"></path></g></g><g transform="matrix(1,0,0,1,370,265)" opacity="1" style="display: block;"><g opacity="1" transform="matrix(1,0,0,1,0,0)"><path stroke-linecap="round" stroke-linejoin="round" fill-opacity="0" stroke="#1F1351" stroke-opacity="1" stroke-width="55px" d=" M-327,222.5 C-327,222.5 1.5,222.5 1.5,222.5 C1.5,222.5 327,222.5 327,222.5"></path></g></g><g transform="matrix(1,0,0,1,370,265)" opacity="1" style="display: block;"><g opacity="1" transform="matrix(1,0,0,1,0,0)"><path stroke-linecap="round" stroke-linejoin="round" fill-opacity="0" stroke="#1F1351" stroke-opacity="1" stroke-width="55px" d=" M-327,-222.5 C-327,-222.5 0,-222.5 0,-222.5 C0,-222.5 327,-222.5 327,-222.5"></path></g></g></g></svg>